# xmcd
#
# Track frame offsets:
#	150
#	16830
#	38720
#	56995
#	82467
#	104640
#	128882
#	149557
#	166035
#	185870
#
# Disc length: 2836 seconds
#
# Revision: 1
# Processed by: cddbd v1.4PL0 Copyright (c) Steve Scherf et al.
# Submitted via: audiograbber 1.82.02
#
DISCID=950b120a
DTITLE=Nodéjà - Nodéjà
DYEAR=2000
DGENRE=Soul
TTITLE0=Quelque chose about you
TTITLE1=Reprends-moi
TTITLE2=Michèle
TTITLE3=Te quiero amar
TTITLE4=Konsa
TTITLE5=Danser
TTITLE6=Matin midi minuit
TTITLE7=Je te retrouverai
TTITLE8=Comment aimer
TTITLE9=In spirit
EXTD=
EXTT0=
EXTT1=
EXTT2=
EXTT3=
EXTT4=
EXTT5=
EXTT6=
EXTT7=
EXTT8=
EXTT9=
PLAYORDER=
